<mxfile host="Electron" agent="Mozilla/5.0 (Windows NT 10.0; Win64; x64) AppleWebKit/537.36 (KHTML, like Gecko) draw.io/26.2.2 Chrome/134.0.6998.178 Electron/35.1.2 Safari/537.36" version="26.2.2" pages="2">
  <diagram id="C5RBs43oDa-KdzZeNtuy" name="Page-1">
    <mxGraphModel dx="2054" dy="1196" grid="1" gridSize="10" guides="1" tooltips="1" connect="1" arrows="1" fold="1" page="1" pageScale="1" pageWidth="827" pageHeight="1169" math="0" shadow="0">
      <root>
        <mxCell id="WIyWlLk6GJQsqaUBKTNV-0" />
        <mxCell id="WIyWlLk6GJQsqaUBKTNV-1" parent="WIyWlLk6GJQsqaUBKTNV-0" />
        <mxCell id="9eslR-U4CzoEH0Ju1LOf-1" style="edgeStyle=orthogonalEdgeStyle;rounded=0;orthogonalLoop=1;jettySize=auto;html=1;" parent="WIyWlLk6GJQsqaUBKTNV-1" source="9eslR-U4CzoEH0Ju1LOf-0" edge="1">
          <mxGeometry relative="1" as="geometry">
            <mxPoint x="260" y="240" as="targetPoint" />
          </mxGeometry>
        </mxCell>
        <mxCell id="9eslR-U4CzoEH0Ju1LOf-20" style="edgeStyle=orthogonalEdgeStyle;rounded=0;orthogonalLoop=1;jettySize=auto;html=1;exitX=0.5;exitY=1;exitDx=0;exitDy=0;entryX=0;entryY=0.5;entryDx=0;entryDy=0;" parent="WIyWlLk6GJQsqaUBKTNV-1" source="9eslR-U4CzoEH0Ju1LOf-0" target="9eslR-U4CzoEH0Ju1LOf-16" edge="1">
          <mxGeometry relative="1" as="geometry" />
        </mxCell>
        <mxCell id="9eslR-U4CzoEH0Ju1LOf-29" style="edgeStyle=orthogonalEdgeStyle;rounded=0;orthogonalLoop=1;jettySize=auto;html=1;exitX=0.5;exitY=1;exitDx=0;exitDy=0;entryX=0;entryY=0.621;entryDx=0;entryDy=0;entryPerimeter=0;" parent="WIyWlLk6GJQsqaUBKTNV-1" source="9eslR-U4CzoEH0Ju1LOf-0" target="9eslR-U4CzoEH0Ju1LOf-30" edge="1">
          <mxGeometry relative="1" as="geometry">
            <mxPoint x="300" y="440" as="targetPoint" />
          </mxGeometry>
        </mxCell>
        <mxCell id="9eslR-U4CzoEH0Ju1LOf-50" style="edgeStyle=orthogonalEdgeStyle;rounded=0;orthogonalLoop=1;jettySize=auto;html=1;exitX=0.5;exitY=1;exitDx=0;exitDy=0;entryX=0;entryY=0.5;entryDx=0;entryDy=0;" parent="WIyWlLk6GJQsqaUBKTNV-1" source="9eslR-U4CzoEH0Ju1LOf-0" target="9eslR-U4CzoEH0Ju1LOf-43" edge="1">
          <mxGeometry relative="1" as="geometry">
            <mxPoint x="150" y="681.6" as="targetPoint" />
          </mxGeometry>
        </mxCell>
        <mxCell id="9eslR-U4CzoEH0Ju1LOf-0" value="录制鸟声" style="rounded=1;whiteSpace=wrap;html=1;fillColor=none;" parent="WIyWlLk6GJQsqaUBKTNV-1" vertex="1">
          <mxGeometry x="90" y="210" width="120" height="60" as="geometry" />
        </mxCell>
        <mxCell id="9eslR-U4CzoEH0Ju1LOf-3" value="MossForms2&lt;div&gt;预处理去噪/分离&lt;/div&gt;" style="rounded=0;whiteSpace=wrap;html=1;" parent="WIyWlLk6GJQsqaUBKTNV-1" vertex="1">
          <mxGeometry x="260" y="210" width="100" height="60" as="geometry" />
        </mxCell>
        <mxCell id="9eslR-U4CzoEH0Ju1LOf-4" value="效果不是特别好，但是可以分离出来些" style="shape=callout;whiteSpace=wrap;html=1;perimeter=calloutPerimeter;" parent="WIyWlLk6GJQsqaUBKTNV-1" vertex="1">
          <mxGeometry x="250" y="120" width="120" height="80" as="geometry" />
        </mxCell>
        <mxCell id="9eslR-U4CzoEH0Ju1LOf-5" value="" style="curved=1;endArrow=classic;html=1;rounded=0;" parent="WIyWlLk6GJQsqaUBKTNV-1" edge="1">
          <mxGeometry width="50" height="50" relative="1" as="geometry">
            <mxPoint x="360" y="240" as="sourcePoint" />
            <mxPoint x="480" y="180" as="targetPoint" />
            <Array as="points">
              <mxPoint x="370" y="170" />
            </Array>
          </mxGeometry>
        </mxCell>
        <mxCell id="9eslR-U4CzoEH0Ju1LOf-6" value="" style="curved=1;endArrow=classic;html=1;rounded=0;exitX=1;exitY=0.5;exitDx=0;exitDy=0;entryX=0;entryY=0.5;entryDx=0;entryDy=0;" parent="WIyWlLk6GJQsqaUBKTNV-1" source="9eslR-U4CzoEH0Ju1LOf-3" target="9eslR-U4CzoEH0Ju1LOf-25" edge="1">
          <mxGeometry width="50" height="50" relative="1" as="geometry">
            <mxPoint x="360" y="290" as="sourcePoint" />
            <mxPoint x="480" y="280" as="targetPoint" />
            <Array as="points">
              <mxPoint x="390" y="290" />
            </Array>
          </mxGeometry>
        </mxCell>
        <mxCell id="9eslR-U4CzoEH0Ju1LOf-13" style="edgeStyle=orthogonalEdgeStyle;rounded=0;orthogonalLoop=1;jettySize=auto;html=1;exitX=1;exitY=0.5;exitDx=0;exitDy=0;entryX=0;entryY=0.5;entryDx=0;entryDy=0;" parent="WIyWlLk6GJQsqaUBKTNV-1" source="9eslR-U4CzoEH0Ju1LOf-7" target="9eslR-U4CzoEH0Ju1LOf-12" edge="1">
          <mxGeometry relative="1" as="geometry" />
        </mxCell>
        <mxCell id="9eslR-U4CzoEH0Ju1LOf-27" style="edgeStyle=orthogonalEdgeStyle;rounded=0;orthogonalLoop=1;jettySize=auto;html=1;exitX=1;exitY=0.807;exitDx=0;exitDy=0;exitPerimeter=0;" parent="WIyWlLk6GJQsqaUBKTNV-1" source="9eslR-U4CzoEH0Ju1LOf-7" target="9eslR-U4CzoEH0Ju1LOf-30" edge="1">
          <mxGeometry relative="1" as="geometry">
            <mxPoint x="610" y="520" as="targetPoint" />
            <mxPoint x="610.14" y="204.27999999999997" as="sourcePoint" />
            <Array as="points">
              <mxPoint x="610" y="198" />
            </Array>
          </mxGeometry>
        </mxCell>
        <mxCell id="9eslR-U4CzoEH0Ju1LOf-7" value="略微干净的鸟声" style="rounded=1;whiteSpace=wrap;html=1;" parent="WIyWlLk6GJQsqaUBKTNV-1" vertex="1">
          <mxGeometry x="480" y="150" width="120" height="60" as="geometry" />
        </mxCell>
        <mxCell id="9eslR-U4CzoEH0Ju1LOf-17" value="" style="edgeStyle=orthogonalEdgeStyle;rounded=0;orthogonalLoop=1;jettySize=auto;html=1;" parent="WIyWlLk6GJQsqaUBKTNV-1" source="9eslR-U4CzoEH0Ju1LOf-12" target="9eslR-U4CzoEH0Ju1LOf-16" edge="1">
          <mxGeometry relative="1" as="geometry" />
        </mxCell>
        <mxCell id="9eslR-U4CzoEH0Ju1LOf-12" value="Ecapa-tdnn" style="rounded=0;whiteSpace=wrap;html=1;" parent="WIyWlLk6GJQsqaUBKTNV-1" vertex="1">
          <mxGeometry x="640" y="150" width="120" height="60" as="geometry" />
        </mxCell>
        <mxCell id="9eslR-U4CzoEH0Ju1LOf-19" value="" style="edgeStyle=orthogonalEdgeStyle;rounded=0;orthogonalLoop=1;jettySize=auto;html=1;" parent="WIyWlLk6GJQsqaUBKTNV-1" source="9eslR-U4CzoEH0Ju1LOf-16" target="9eslR-U4CzoEH0Ju1LOf-18" edge="1">
          <mxGeometry relative="1" as="geometry" />
        </mxCell>
        <mxCell id="9eslR-U4CzoEH0Ju1LOf-24" value="挑选" style="edgeLabel;html=1;align=center;verticalAlign=middle;resizable=0;points=[];" parent="9eslR-U4CzoEH0Ju1LOf-19" vertex="1" connectable="0">
          <mxGeometry x="0.1481" y="1" relative="1" as="geometry">
            <mxPoint as="offset" />
          </mxGeometry>
        </mxCell>
        <mxCell id="9eslR-U4CzoEH0Ju1LOf-51" style="edgeStyle=orthogonalEdgeStyle;rounded=0;orthogonalLoop=1;jettySize=auto;html=1;exitX=1;exitY=0.5;exitDx=0;exitDy=0;entryX=1;entryY=0.5;entryDx=0;entryDy=0;" parent="WIyWlLk6GJQsqaUBKTNV-1" source="9eslR-U4CzoEH0Ju1LOf-16" target="9eslR-U4CzoEH0Ju1LOf-43" edge="1">
          <mxGeometry relative="1" as="geometry">
            <Array as="points">
              <mxPoint x="780" y="366" />
              <mxPoint x="780" y="681" />
            </Array>
          </mxGeometry>
        </mxCell>
        <mxCell id="9eslR-U4CzoEH0Ju1LOf-16" value="鸟声类别" style="ellipse;whiteSpace=wrap;html=1;rounded=0;fillColor=#e1d5e7;strokeColor=#9673a6;" parent="WIyWlLk6GJQsqaUBKTNV-1" vertex="1">
          <mxGeometry x="675" y="341" width="50" height="50" as="geometry" />
        </mxCell>
        <mxCell id="9eslR-U4CzoEH0Ju1LOf-18" value="含噪鸟声" style="whiteSpace=wrap;html=1;rounded=0;fillColor=#dae8fc;strokeColor=#6c8ebf;" parent="WIyWlLk6GJQsqaUBKTNV-1" vertex="1">
          <mxGeometry x="665" y="450" width="70" height="30" as="geometry" />
        </mxCell>
        <mxCell id="9eslR-U4CzoEH0Ju1LOf-31" style="edgeStyle=orthogonalEdgeStyle;rounded=0;orthogonalLoop=1;jettySize=auto;html=1;exitX=0.75;exitY=1;exitDx=0;exitDy=0;entryX=0.333;entryY=0.01;entryDx=0;entryDy=0;entryPerimeter=0;" parent="WIyWlLk6GJQsqaUBKTNV-1" source="9eslR-U4CzoEH0Ju1LOf-25" target="9eslR-U4CzoEH0Ju1LOf-30" edge="1">
          <mxGeometry relative="1" as="geometry">
            <mxPoint x="540" y="400" as="targetPoint" />
          </mxGeometry>
        </mxCell>
        <mxCell id="9eslR-U4CzoEH0Ju1LOf-25" value="略微干净的鸟声" style="rounded=1;whiteSpace=wrap;html=1;" parent="WIyWlLk6GJQsqaUBKTNV-1" vertex="1">
          <mxGeometry x="450" y="250" width="120" height="60" as="geometry" />
        </mxCell>
        <mxCell id="9eslR-U4CzoEH0Ju1LOf-30" value="获取时段" style="rounded=1;whiteSpace=wrap;html=1;fillColor=#fff2cc;strokeColor=#d6b656;" parent="WIyWlLk6GJQsqaUBKTNV-1" vertex="1">
          <mxGeometry x="500" y="402" width="120" height="29" as="geometry" />
        </mxCell>
        <mxCell id="9eslR-U4CzoEH0Ju1LOf-32" value="噪声" style="whiteSpace=wrap;html=1;rounded=0;fillColor=#dae8fc;strokeColor=#6c8ebf;" parent="WIyWlLk6GJQsqaUBKTNV-1" vertex="1">
          <mxGeometry x="500" y="450" width="50" height="30" as="geometry" />
        </mxCell>
        <mxCell id="9eslR-U4CzoEH0Ju1LOf-33" value="少量纯净鸟声" style="whiteSpace=wrap;html=1;rounded=0;fillColor=#dae8fc;strokeColor=#6c8ebf;" parent="WIyWlLk6GJQsqaUBKTNV-1" vertex="1">
          <mxGeometry x="560" y="450" width="80" height="30" as="geometry" />
        </mxCell>
        <mxCell id="9eslR-U4CzoEH0Ju1LOf-34" style="edgeStyle=orthogonalEdgeStyle;rounded=0;orthogonalLoop=1;jettySize=auto;html=1;exitX=0.25;exitY=1;exitDx=0;exitDy=0;entryX=0.635;entryY=-0.006;entryDx=0;entryDy=0;entryPerimeter=0;" parent="WIyWlLk6GJQsqaUBKTNV-1" source="9eslR-U4CzoEH0Ju1LOf-30" target="9eslR-U4CzoEH0Ju1LOf-32" edge="1">
          <mxGeometry relative="1" as="geometry">
            <mxPoint x="532" y="449" as="targetPoint" />
          </mxGeometry>
        </mxCell>
        <mxCell id="9eslR-U4CzoEH0Ju1LOf-35" value="" style="endArrow=classic;html=1;rounded=0;entryX=0.533;entryY=-0.013;entryDx=0;entryDy=0;entryPerimeter=0;exitX=0.852;exitY=1.008;exitDx=0;exitDy=0;exitPerimeter=0;" parent="WIyWlLk6GJQsqaUBKTNV-1" source="9eslR-U4CzoEH0Ju1LOf-30" target="9eslR-U4CzoEH0Ju1LOf-33" edge="1">
          <mxGeometry width="50" height="50" relative="1" as="geometry">
            <mxPoint x="540" y="460" as="sourcePoint" />
            <mxPoint x="590" y="410" as="targetPoint" />
          </mxGeometry>
        </mxCell>
        <mxCell id="9eslR-U4CzoEH0Ju1LOf-42" style="edgeStyle=orthogonalEdgeStyle;rounded=0;orthogonalLoop=1;jettySize=auto;html=1;" parent="WIyWlLk6GJQsqaUBKTNV-1" target="9eslR-U4CzoEH0Ju1LOf-43" edge="1">
          <mxGeometry relative="1" as="geometry">
            <mxPoint x="620" y="681" as="targetPoint" />
            <mxPoint x="620" y="517" as="sourcePoint" />
          </mxGeometry>
        </mxCell>
        <mxCell id="9eslR-U4CzoEH0Ju1LOf-36" value="MossForms2去噪增强" style="shape=process;whiteSpace=wrap;html=1;backgroundOutline=1;" parent="WIyWlLk6GJQsqaUBKTNV-1" vertex="1">
          <mxGeometry x="490" y="520" width="260" height="76" as="geometry" />
        </mxCell>
        <mxCell id="9eslR-U4CzoEH0Ju1LOf-37" style="edgeStyle=orthogonalEdgeStyle;rounded=0;orthogonalLoop=1;jettySize=auto;html=1;exitX=0.5;exitY=1;exitDx=0;exitDy=0;entryX=0.003;entryY=0.558;entryDx=0;entryDy=0;entryPerimeter=0;" parent="WIyWlLk6GJQsqaUBKTNV-1" source="9eslR-U4CzoEH0Ju1LOf-3" target="9eslR-U4CzoEH0Ju1LOf-36" edge="1">
          <mxGeometry relative="1" as="geometry" />
        </mxCell>
        <mxCell id="9eslR-U4CzoEH0Ju1LOf-38" value="预训练" style="edgeLabel;html=1;align=center;verticalAlign=middle;resizable=0;points=[];" parent="9eslR-U4CzoEH0Ju1LOf-37" vertex="1" connectable="0">
          <mxGeometry x="0.6057" y="-1" relative="1" as="geometry">
            <mxPoint y="-79" as="offset" />
          </mxGeometry>
        </mxCell>
        <mxCell id="9eslR-U4CzoEH0Ju1LOf-39" style="edgeStyle=orthogonalEdgeStyle;rounded=0;orthogonalLoop=1;jettySize=auto;html=1;exitX=0.5;exitY=1;exitDx=0;exitDy=0;entryX=0.136;entryY=-0.023;entryDx=0;entryDy=0;entryPerimeter=0;" parent="WIyWlLk6GJQsqaUBKTNV-1" source="9eslR-U4CzoEH0Ju1LOf-32" target="9eslR-U4CzoEH0Ju1LOf-36" edge="1">
          <mxGeometry relative="1" as="geometry" />
        </mxCell>
        <mxCell id="9eslR-U4CzoEH0Ju1LOf-40" style="edgeStyle=orthogonalEdgeStyle;rounded=0;orthogonalLoop=1;jettySize=auto;html=1;entryX=0.423;entryY=-0.012;entryDx=0;entryDy=0;entryPerimeter=0;" parent="WIyWlLk6GJQsqaUBKTNV-1" source="9eslR-U4CzoEH0Ju1LOf-33" target="9eslR-U4CzoEH0Ju1LOf-36" edge="1">
          <mxGeometry relative="1" as="geometry" />
        </mxCell>
        <mxCell id="9eslR-U4CzoEH0Ju1LOf-41" style="edgeStyle=orthogonalEdgeStyle;rounded=0;orthogonalLoop=1;jettySize=auto;html=1;exitX=0.5;exitY=1;exitDx=0;exitDy=0;entryX=0.808;entryY=0;entryDx=0;entryDy=0;entryPerimeter=0;" parent="WIyWlLk6GJQsqaUBKTNV-1" source="9eslR-U4CzoEH0Ju1LOf-18" target="9eslR-U4CzoEH0Ju1LOf-36" edge="1">
          <mxGeometry relative="1" as="geometry" />
        </mxCell>
        <mxCell id="9eslR-U4CzoEH0Ju1LOf-48" style="edgeStyle=orthogonalEdgeStyle;rounded=0;orthogonalLoop=1;jettySize=auto;html=1;" parent="WIyWlLk6GJQsqaUBKTNV-1" source="9eslR-U4CzoEH0Ju1LOf-43" target="9eslR-U4CzoEH0Ju1LOf-49" edge="1">
          <mxGeometry relative="1" as="geometry">
            <mxPoint x="620" y="811" as="targetPoint" />
          </mxGeometry>
        </mxCell>
        <mxCell id="9eslR-U4CzoEH0Ju1LOf-43" value="获取大量各自&lt;div&gt;类别干净音频&lt;/div&gt;" style="rounded=1;whiteSpace=wrap;html=1;" parent="WIyWlLk6GJQsqaUBKTNV-1" vertex="1">
          <mxGeometry x="555" y="651" width="130" height="60" as="geometry" />
        </mxCell>
        <mxCell id="9eslR-U4CzoEH0Ju1LOf-49" value="检测最低频&lt;div&gt;(目前仅AU直接观察)&lt;/div&gt;" style="rounded=0;whiteSpace=wrap;html=1;" parent="WIyWlLk6GJQsqaUBKTNV-1" vertex="1">
          <mxGeometry x="560" y="761" width="120" height="60" as="geometry" />
        </mxCell>
      </root>
    </mxGraphModel>
  </diagram>
  <diagram id="4R9Gz_Vji2KyA9CetlJa" name="第 2 页">
    <mxGraphModel dx="1417" dy="825" grid="1" gridSize="10" guides="1" tooltips="1" connect="1" arrows="1" fold="1" page="1" pageScale="1" pageWidth="827" pageHeight="1169" math="0" shadow="0">
      <root>
        <mxCell id="0" />
        <mxCell id="1" parent="0" />
        <mxCell id="WOE_MLlAVGaR3CPxlU4l-5" style="edgeStyle=orthogonalEdgeStyle;rounded=0;orthogonalLoop=1;jettySize=auto;html=1;exitX=0.5;exitY=1;exitDx=0;exitDy=0;entryX=0.5;entryY=0;entryDx=0;entryDy=0;" edge="1" parent="1" source="40N8n0DOtSWEevkfokkI-60" target="WOE_MLlAVGaR3CPxlU4l-4">
          <mxGeometry relative="1" as="geometry" />
        </mxCell>
        <mxCell id="40N8n0DOtSWEevkfokkI-60" value="" style="rounded=0;whiteSpace=wrap;html=1;fillColor=#f5f5f5;fontColor=#333333;strokeColor=#666666;" parent="1" vertex="1">
          <mxGeometry x="180.5" y="825" width="470" height="110" as="geometry" />
        </mxCell>
        <mxCell id="40N8n0DOtSWEevkfokkI-61" value="净化后杂讯" style="text;html=1;align=center;verticalAlign=middle;resizable=0;points=[];autosize=1;strokeColor=none;fillColor=none;" parent="1" vertex="1">
          <mxGeometry x="177.5" y="825" width="80" height="30" as="geometry" />
        </mxCell>
        <mxCell id="40N8n0DOtSWEevkfokkI-58" value="" style="rounded=0;whiteSpace=wrap;html=1;fillColor=#f5f5f5;fontColor=#333333;strokeColor=#666666;" parent="1" vertex="1">
          <mxGeometry x="190" y="290" width="470" height="95" as="geometry" />
        </mxCell>
        <mxCell id="40N8n0DOtSWEevkfokkI-6" value="" style="edgeStyle=orthogonalEdgeStyle;rounded=0;orthogonalLoop=1;jettySize=auto;html=1;" parent="1" source="40N8n0DOtSWEevkfokkI-2" target="40N8n0DOtSWEevkfokkI-5" edge="1">
          <mxGeometry relative="1" as="geometry" />
        </mxCell>
        <mxCell id="40N8n0DOtSWEevkfokkI-2" value="含噪鸟声" style="rounded=0;whiteSpace=wrap;html=1;fillColor=#d5e8d4;strokeColor=#82b366;" parent="1" vertex="1">
          <mxGeometry x="379" y="165" width="70" height="40" as="geometry" />
        </mxCell>
        <mxCell id="40N8n0DOtSWEevkfokkI-18" value="" style="edgeStyle=orthogonalEdgeStyle;rounded=0;orthogonalLoop=1;jettySize=auto;html=1;" parent="1" source="40N8n0DOtSWEevkfokkI-5" target="40N8n0DOtSWEevkfokkI-17" edge="1">
          <mxGeometry relative="1" as="geometry" />
        </mxCell>
        <mxCell id="40N8n0DOtSWEevkfokkI-5" value="ECAPA-TDNN" style="whiteSpace=wrap;html=1;rounded=0;fillColor=#fff2cc;strokeColor=#d6b656;" parent="1" vertex="1">
          <mxGeometry x="364" y="245" width="100" height="30" as="geometry" />
        </mxCell>
        <mxCell id="40N8n0DOtSWEevkfokkI-14" style="edgeStyle=orthogonalEdgeStyle;rounded=0;orthogonalLoop=1;jettySize=auto;html=1;exitX=0.5;exitY=1;exitDx=0;exitDy=0;entryX=0.5;entryY=0;entryDx=0;entryDy=0;" parent="1" source="40N8n0DOtSWEevkfokkI-7" target="40N8n0DOtSWEevkfokkI-12" edge="1">
          <mxGeometry relative="1" as="geometry" />
        </mxCell>
        <mxCell id="40N8n0DOtSWEevkfokkI-7" value="录制" style="rounded=0;whiteSpace=wrap;html=1;fillColor=#d5e8d4;strokeColor=#82b366;" parent="1" vertex="1">
          <mxGeometry x="379" y="25" width="70" height="40" as="geometry" />
        </mxCell>
        <mxCell id="40N8n0DOtSWEevkfokkI-15" style="edgeStyle=orthogonalEdgeStyle;rounded=0;orthogonalLoop=1;jettySize=auto;html=1;exitX=0.511;exitY=1.001;exitDx=0;exitDy=0;entryX=0.5;entryY=0;entryDx=0;entryDy=0;exitPerimeter=0;" parent="1" source="40N8n0DOtSWEevkfokkI-12" edge="1">
          <mxGeometry relative="1" as="geometry">
            <mxPoint x="413.75" y="135" as="sourcePoint" />
            <mxPoint x="414.2499999999999" y="165" as="targetPoint" />
          </mxGeometry>
        </mxCell>
        <mxCell id="40N8n0DOtSWEevkfokkI-12" value="鸟声事件检测" style="whiteSpace=wrap;html=1;fillColor=#fff2cc;strokeColor=#d6b656;" parent="1" vertex="1">
          <mxGeometry x="368" y="95" width="91" height="40" as="geometry" />
        </mxCell>
        <mxCell id="40N8n0DOtSWEevkfokkI-17" value="鸟类1叫声" style="whiteSpace=wrap;html=1;rounded=0;fillColor=#e1d5e7;strokeColor=#9673a6;" parent="1" vertex="1">
          <mxGeometry x="250" y="325" width="70" height="20" as="geometry" />
        </mxCell>
        <mxCell id="40N8n0DOtSWEevkfokkI-19" value="鸟类2叫声" style="whiteSpace=wrap;html=1;rounded=0;fillColor=#e1d5e7;strokeColor=#9673a6;" parent="1" vertex="1">
          <mxGeometry x="330" y="325" width="70" height="20" as="geometry" />
        </mxCell>
        <mxCell id="40N8n0DOtSWEevkfokkI-20" style="edgeStyle=orthogonalEdgeStyle;rounded=0;orthogonalLoop=1;jettySize=auto;html=1;exitX=0.25;exitY=1;exitDx=0;exitDy=0;" parent="1" source="40N8n0DOtSWEevkfokkI-5" edge="1">
          <mxGeometry relative="1" as="geometry">
            <mxPoint x="365" y="325" as="targetPoint" />
          </mxGeometry>
        </mxCell>
        <mxCell id="40N8n0DOtSWEevkfokkI-21" value="" style="endArrow=none;dashed=1;html=1;dashPattern=1 3;strokeWidth=2;rounded=0;" parent="1" edge="1">
          <mxGeometry width="50" height="50" relative="1" as="geometry">
            <mxPoint x="409" y="334.92" as="sourcePoint" />
            <mxPoint x="440" y="334.92" as="targetPoint" />
          </mxGeometry>
        </mxCell>
        <mxCell id="40N8n0DOtSWEevkfokkI-22" value="鸟类n-1叫声" style="whiteSpace=wrap;html=1;rounded=0;fillColor=#e1d5e7;strokeColor=#9673a6;" parent="1" vertex="1">
          <mxGeometry x="440" y="325" width="70" height="20" as="geometry" />
        </mxCell>
        <mxCell id="40N8n0DOtSWEevkfokkI-23" style="edgeStyle=orthogonalEdgeStyle;rounded=0;orthogonalLoop=1;jettySize=auto;html=1;exitX=0.75;exitY=1;exitDx=0;exitDy=0;entryX=0.463;entryY=-0.015;entryDx=0;entryDy=0;entryPerimeter=0;" parent="1" source="40N8n0DOtSWEevkfokkI-5" target="40N8n0DOtSWEevkfokkI-22" edge="1">
          <mxGeometry relative="1" as="geometry" />
        </mxCell>
        <mxCell id="40N8n0DOtSWEevkfokkI-24" value="鸟类n叫声" style="whiteSpace=wrap;html=1;rounded=0;fillColor=#e1d5e7;strokeColor=#9673a6;" parent="1" vertex="1">
          <mxGeometry x="520" y="325" width="70" height="20" as="geometry" />
        </mxCell>
        <mxCell id="40N8n0DOtSWEevkfokkI-25" style="edgeStyle=orthogonalEdgeStyle;rounded=0;orthogonalLoop=1;jettySize=auto;html=1;exitX=1;exitY=0.5;exitDx=0;exitDy=0;entryX=0.57;entryY=-0.014;entryDx=0;entryDy=0;entryPerimeter=0;" parent="1" source="40N8n0DOtSWEevkfokkI-5" target="40N8n0DOtSWEevkfokkI-24" edge="1">
          <mxGeometry relative="1" as="geometry" />
        </mxCell>
        <mxCell id="40N8n0DOtSWEevkfokkI-40" style="edgeStyle=orthogonalEdgeStyle;rounded=0;orthogonalLoop=1;jettySize=auto;html=1;exitX=0.25;exitY=1;exitDx=0;exitDy=0;" parent="1" source="40N8n0DOtSWEevkfokkI-27" target="40N8n0DOtSWEevkfokkI-41" edge="1">
          <mxGeometry relative="1" as="geometry">
            <mxPoint x="337.20000000000005" y="645" as="targetPoint" />
          </mxGeometry>
        </mxCell>
        <mxCell id="40N8n0DOtSWEevkfokkI-43" style="edgeStyle=orthogonalEdgeStyle;rounded=0;orthogonalLoop=1;jettySize=auto;html=1;exitX=0.75;exitY=1;exitDx=0;exitDy=0;entryX=0.5;entryY=0;entryDx=0;entryDy=0;" parent="1" source="40N8n0DOtSWEevkfokkI-27" target="40N8n0DOtSWEevkfokkI-42" edge="1">
          <mxGeometry relative="1" as="geometry" />
        </mxCell>
        <mxCell id="40N8n0DOtSWEevkfokkI-27" value="" style="whiteSpace=wrap;html=1;fillColor=#dae8fc;strokeColor=#6c8ebf;" parent="1" vertex="1">
          <mxGeometry x="261" y="405" width="304" height="180" as="geometry" />
        </mxCell>
        <mxCell id="40N8n0DOtSWEevkfokkI-26" value="人工复检剔除假阳的非鸟声片段" style="whiteSpace=wrap;html=1;fillColor=#f5f5f5;fontColor=#333333;strokeColor=#666666;fillStyle=auto;dashed=1;" parent="1" vertex="1">
          <mxGeometry x="327" y="435" width="170" height="20" as="geometry" />
        </mxCell>
        <mxCell id="40N8n0DOtSWEevkfokkI-28" value="训练集数据制作" style="text;html=1;align=center;verticalAlign=middle;resizable=0;points=[];autosize=1;strokeColor=none;fillColor=none;" parent="1" vertex="1">
          <mxGeometry x="254" y="405" width="110" height="30" as="geometry" />
        </mxCell>
        <mxCell id="40N8n0DOtSWEevkfokkI-31" style="rounded=0;orthogonalLoop=1;jettySize=auto;html=1;exitX=0.5;exitY=1;exitDx=0;exitDy=0;entryX=0.283;entryY=0;entryDx=0;entryDy=0;entryPerimeter=0;" parent="1" source="40N8n0DOtSWEevkfokkI-17" target="40N8n0DOtSWEevkfokkI-28" edge="1">
          <mxGeometry relative="1" as="geometry" />
        </mxCell>
        <mxCell id="40N8n0DOtSWEevkfokkI-33" style="rounded=0;orthogonalLoop=1;jettySize=auto;html=1;exitX=0.5;exitY=1;exitDx=0;exitDy=0;entryX=0.343;entryY=0.007;entryDx=0;entryDy=0;entryPerimeter=0;" parent="1" source="40N8n0DOtSWEevkfokkI-19" target="40N8n0DOtSWEevkfokkI-27" edge="1">
          <mxGeometry relative="1" as="geometry" />
        </mxCell>
        <mxCell id="40N8n0DOtSWEevkfokkI-34" style="rounded=0;orthogonalLoop=1;jettySize=auto;html=1;exitX=0.5;exitY=1;exitDx=0;exitDy=0;entryX=0.704;entryY=-0.003;entryDx=0;entryDy=0;entryPerimeter=0;" parent="1" source="40N8n0DOtSWEevkfokkI-22" target="40N8n0DOtSWEevkfokkI-27" edge="1">
          <mxGeometry relative="1" as="geometry" />
        </mxCell>
        <mxCell id="40N8n0DOtSWEevkfokkI-35" style="rounded=0;orthogonalLoop=1;jettySize=auto;html=1;exitX=0.5;exitY=1;exitDx=0;exitDy=0;entryX=0.967;entryY=-0.001;entryDx=0;entryDy=0;entryPerimeter=0;" parent="1" source="40N8n0DOtSWEevkfokkI-24" target="40N8n0DOtSWEevkfokkI-27" edge="1">
          <mxGeometry relative="1" as="geometry" />
        </mxCell>
        <mxCell id="40N8n0DOtSWEevkfokkI-36" value="人工复检剔除&lt;span style=&quot;background-color: transparent; color: light-dark(rgb(51, 51, 51), rgb(193, 193, 193));&quot;&gt;难辨识低高频频率片段&lt;/span&gt;" style="whiteSpace=wrap;html=1;fillColor=#f5f5f5;fontColor=#333333;strokeColor=#666666;fillStyle=auto;dashed=1;" parent="1" vertex="1">
          <mxGeometry x="312" y="465" width="200" height="20" as="geometry" />
        </mxCell>
        <mxCell id="40N8n0DOtSWEevkfokkI-37" value="人工检测标记各个鸟类部分片段的时间频率范围" style="whiteSpace=wrap;html=1;fillColor=#f5f5f5;fontColor=#333333;strokeColor=#666666;fillStyle=auto;dashed=1;" parent="1" vertex="1">
          <mxGeometry x="282" y="495" width="260" height="20" as="geometry" />
        </mxCell>
        <mxCell id="40N8n0DOtSWEevkfokkI-38" value="使用FIR滤波器和时间裁剪获取较为纯净鸟声" style="whiteSpace=wrap;html=1;fillColor=#f5f5f5;fontColor=#333333;strokeColor=#666666;fillStyle=auto;dashed=1;" parent="1" vertex="1">
          <mxGeometry x="282" y="525.5" width="260" height="20" as="geometry" />
        </mxCell>
        <mxCell id="40N8n0DOtSWEevkfokkI-39" value="时间裁剪剔除鸟声部分，或填充或直接拼接形成噪声" style="whiteSpace=wrap;html=1;fillColor=#f5f5f5;fontColor=#333333;strokeColor=#666666;fillStyle=auto;dashed=1;" parent="1" vertex="1">
          <mxGeometry x="272" y="555" width="280" height="20" as="geometry" />
        </mxCell>
        <mxCell id="40N8n0DOtSWEevkfokkI-41" value="干净鸟声片段&lt;div&gt;(一般不等长)&lt;/div&gt;" style="rounded=0;whiteSpace=wrap;html=1;fillColor=#d5e8d4;strokeColor=#82b366;" parent="1" vertex="1">
          <mxGeometry x="296.2" y="615" width="82.8" height="40" as="geometry" />
        </mxCell>
        <mxCell id="40N8n0DOtSWEevkfokkI-42" value="鸟声前后片段噪声&lt;div&gt;(一般不等长)&lt;/div&gt;" style="rounded=0;whiteSpace=wrap;html=1;fillColor=#d5e8d4;strokeColor=#82b366;" parent="1" vertex="1">
          <mxGeometry x="441" y="615" width="111" height="40" as="geometry" />
        </mxCell>
        <mxCell id="40N8n0DOtSWEevkfokkI-54" style="edgeStyle=orthogonalEdgeStyle;rounded=0;orthogonalLoop=1;jettySize=auto;html=1;exitX=0;exitY=0.75;exitDx=0;exitDy=0;entryX=0.5;entryY=0;entryDx=0;entryDy=0;" parent="1" source="40N8n0DOtSWEevkfokkI-44" target="40N8n0DOtSWEevkfokkI-49" edge="1">
          <mxGeometry relative="1" as="geometry" />
        </mxCell>
        <mxCell id="40N8n0DOtSWEevkfokkI-55" style="edgeStyle=orthogonalEdgeStyle;rounded=0;orthogonalLoop=1;jettySize=auto;html=1;exitX=0.25;exitY=1;exitDx=0;exitDy=0;entryX=0.5;entryY=0;entryDx=0;entryDy=0;" parent="1" source="40N8n0DOtSWEevkfokkI-44" target="40N8n0DOtSWEevkfokkI-50" edge="1">
          <mxGeometry relative="1" as="geometry" />
        </mxCell>
        <mxCell id="40N8n0DOtSWEevkfokkI-56" style="edgeStyle=orthogonalEdgeStyle;rounded=0;orthogonalLoop=1;jettySize=auto;html=1;exitX=0.75;exitY=1;exitDx=0;exitDy=0;entryX=0.5;entryY=0;entryDx=0;entryDy=0;" parent="1" source="40N8n0DOtSWEevkfokkI-44" target="40N8n0DOtSWEevkfokkI-51" edge="1">
          <mxGeometry relative="1" as="geometry" />
        </mxCell>
        <mxCell id="40N8n0DOtSWEevkfokkI-57" style="edgeStyle=orthogonalEdgeStyle;rounded=0;orthogonalLoop=1;jettySize=auto;html=1;exitX=1;exitY=0.75;exitDx=0;exitDy=0;entryX=0.5;entryY=0;entryDx=0;entryDy=0;" parent="1" source="40N8n0DOtSWEevkfokkI-44" target="40N8n0DOtSWEevkfokkI-52" edge="1">
          <mxGeometry relative="1" as="geometry" />
        </mxCell>
        <mxCell id="40N8n0DOtSWEevkfokkI-44" value="MossFormer2分离噪声" style="whiteSpace=wrap;html=1;rounded=0;fillColor=#fff2cc;strokeColor=#d6b656;" parent="1" vertex="1">
          <mxGeometry x="348" y="785" width="128" height="30" as="geometry" />
        </mxCell>
        <mxCell id="40N8n0DOtSWEevkfokkI-48" style="edgeStyle=orthogonalEdgeStyle;rounded=0;orthogonalLoop=1;jettySize=auto;html=1;exitX=0.5;exitY=1;exitDx=0;exitDy=0;entryX=0.5;entryY=0;entryDx=0;entryDy=0;" parent="1" source="40N8n0DOtSWEevkfokkI-45" target="40N8n0DOtSWEevkfokkI-44" edge="1">
          <mxGeometry relative="1" as="geometry" />
        </mxCell>
        <mxCell id="40N8n0DOtSWEevkfokkI-45" value="clearvoice中的数据生成" style="rounded=0;whiteSpace=wrap;html=1;" parent="1" vertex="1">
          <mxGeometry x="338" y="685" width="148" height="60" as="geometry" />
        </mxCell>
        <mxCell id="40N8n0DOtSWEevkfokkI-46" style="rounded=0;orthogonalLoop=1;jettySize=auto;html=1;exitX=0.772;exitY=1.016;exitDx=0;exitDy=0;entryX=0.149;entryY=-0.008;entryDx=0;entryDy=0;entryPerimeter=0;exitPerimeter=0;" parent="1" source="40N8n0DOtSWEevkfokkI-41" target="40N8n0DOtSWEevkfokkI-45" edge="1">
          <mxGeometry relative="1" as="geometry" />
        </mxCell>
        <mxCell id="40N8n0DOtSWEevkfokkI-47" style="rounded=0;orthogonalLoop=1;jettySize=auto;html=1;exitX=0.772;exitY=1.016;exitDx=0;exitDy=0;entryX=0.149;entryY=-0.008;entryDx=0;entryDy=0;entryPerimeter=0;exitPerimeter=0;" parent="1" edge="1">
          <mxGeometry relative="1" as="geometry">
            <mxPoint x="463.95" y="655.48" as="sourcePoint" />
            <mxPoint x="463.95" y="684.48" as="targetPoint" />
          </mxGeometry>
        </mxCell>
        <mxCell id="40N8n0DOtSWEevkfokkI-49" value="鸟类1叫声" style="whiteSpace=wrap;html=1;rounded=0;fillColor=#e1d5e7;strokeColor=#9673a6;" parent="1" vertex="1">
          <mxGeometry x="244" y="875" width="70" height="20" as="geometry" />
        </mxCell>
        <mxCell id="40N8n0DOtSWEevkfokkI-50" value="鸟类2叫声" style="whiteSpace=wrap;html=1;rounded=0;fillColor=#e1d5e7;strokeColor=#9673a6;" parent="1" vertex="1">
          <mxGeometry x="324" y="875" width="70" height="20" as="geometry" />
        </mxCell>
        <mxCell id="40N8n0DOtSWEevkfokkI-51" value="鸟类n-1叫声" style="whiteSpace=wrap;html=1;rounded=0;fillColor=#e1d5e7;strokeColor=#9673a6;" parent="1" vertex="1">
          <mxGeometry x="434" y="875" width="70" height="20" as="geometry" />
        </mxCell>
        <mxCell id="40N8n0DOtSWEevkfokkI-52" value="鸟类n叫声" style="whiteSpace=wrap;html=1;rounded=0;fillColor=#e1d5e7;strokeColor=#9673a6;" parent="1" vertex="1">
          <mxGeometry x="514" y="875" width="70" height="20" as="geometry" />
        </mxCell>
        <mxCell id="40N8n0DOtSWEevkfokkI-53" value="" style="endArrow=none;dashed=1;html=1;dashPattern=1 3;strokeWidth=2;rounded=0;" parent="1" edge="1">
          <mxGeometry width="50" height="50" relative="1" as="geometry">
            <mxPoint x="403" y="884.9200000000001" as="sourcePoint" />
            <mxPoint x="434" y="884.9200000000001" as="targetPoint" />
          </mxGeometry>
        </mxCell>
        <mxCell id="40N8n0DOtSWEevkfokkI-59" value="含大量杂讯" style="text;html=1;align=center;verticalAlign=middle;resizable=0;points=[];autosize=1;strokeColor=none;fillColor=none;" parent="1" vertex="1">
          <mxGeometry x="190" y="290" width="80" height="30" as="geometry" />
        </mxCell>
        <mxCell id="40N8n0DOtSWEevkfokkI-64" style="edgeStyle=orthogonalEdgeStyle;rounded=0;orthogonalLoop=1;jettySize=auto;html=1;exitX=0.5;exitY=1;exitDx=0;exitDy=0;" parent="1" source="40N8n0DOtSWEevkfokkI-62" target="40N8n0DOtSWEevkfokkI-65" edge="1">
          <mxGeometry relative="1" as="geometry">
            <mxPoint x="415.7142857142858" y="1130" as="targetPoint" />
          </mxGeometry>
        </mxCell>
        <mxCell id="40N8n0DOtSWEevkfokkI-62" value="采用能量阈值法等等在语谱图上&lt;div&gt;获取并绘制鸟声时频方框&lt;/div&gt;" style="whiteSpace=wrap;html=1;fillColor=#f5f5f5;strokeColor=#666666;fontColor=#333333;rounded=0;" parent="1" vertex="1">
          <mxGeometry x="315.5" y="1050" width="200" height="40" as="geometry" />
        </mxCell>
        <mxCell id="40N8n0DOtSWEevkfokkI-65" value="有效性、充分性、显著性检验得出结论" style="rounded=0;whiteSpace=wrap;html=1;" parent="1" vertex="1">
          <mxGeometry x="283.25" y="1130" width="264.5" height="30" as="geometry" />
        </mxCell>
        <mxCell id="WOE_MLlAVGaR3CPxlU4l-7" style="edgeStyle=orthogonalEdgeStyle;rounded=0;orthogonalLoop=1;jettySize=auto;html=1;exitX=0.5;exitY=0;exitDx=0;exitDy=0;exitPerimeter=0;entryX=1;entryY=0.5;entryDx=0;entryDy=0;" edge="1" parent="1" source="AjmnojHixIVlyeVfmoEZ-1" target="WOE_MLlAVGaR3CPxlU4l-4">
          <mxGeometry relative="1" as="geometry" />
        </mxCell>
        <mxCell id="WOE_MLlAVGaR3CPxlU4l-8" value="由于此权宜之计，大概率会使得测试集&lt;div&gt;部分极低信噪比片段分离降噪效果很差&lt;/div&gt;" style="edgeLabel;html=1;align=center;verticalAlign=middle;resizable=0;points=[];" vertex="1" connectable="0" parent="WOE_MLlAVGaR3CPxlU4l-7">
          <mxGeometry x="-0.3664" y="-1" relative="1" as="geometry">
            <mxPoint x="-15" as="offset" />
          </mxGeometry>
        </mxCell>
        <mxCell id="AjmnojHixIVlyeVfmoEZ-1" value="" style="shape=callout;whiteSpace=wrap;html=1;perimeter=calloutPerimeter;rotation=90;base=11;" parent="1" vertex="1">
          <mxGeometry x="597" y="375" width="38" height="200" as="geometry" />
        </mxCell>
        <mxCell id="AjmnojHixIVlyeVfmoEZ-2" value="另对于识别效果较差的鸟种根据程度酌情剔除后续分析" style="text;html=1;align=center;verticalAlign=middle;whiteSpace=wrap;rounded=0;" parent="1" vertex="1">
          <mxGeometry x="552" y="460" width="150" height="30" as="geometry" />
        </mxCell>
        <mxCell id="WOE_MLlAVGaR3CPxlU4l-6" value="" style="edgeStyle=orthogonalEdgeStyle;rounded=0;orthogonalLoop=1;jettySize=auto;html=1;" edge="1" parent="1" source="WOE_MLlAVGaR3CPxlU4l-4" target="40N8n0DOtSWEevkfokkI-62">
          <mxGeometry relative="1" as="geometry" />
        </mxCell>
        <mxCell id="WOE_MLlAVGaR3CPxlU4l-4" value="再次过滤质量差的片段" style="whiteSpace=wrap;html=1;" vertex="1" parent="1">
          <mxGeometry x="348.5" y="970" width="134" height="40" as="geometry" />
        </mxCell>
      </root>
    </mxGraphModel>
  </diagram>
</mxfile>
